# xmcd
#
# Track frame offsets: 
#        150
#        18056
#        36415
#        53334
#        67006
#        82910
#        113753
#        138550
#        152526
#        165137
#        186851
#        207370
#        224208
#        240156
#        251335
#        262324
#        282527
#        299441
#        316087
#        329391
#
# Disc length: 4669 seconds
#
# Revision: 2
# Processed by: cddbd v1.5.2PL0 Copyright (c) Steve Scherf et al.
# Submitted via: ExactAudioCopy v1.0b3
#
DISCID=1f123b14
DTITLE=Freddie King - Taking Care of Business [CD7]
DYEAR=2009
DGENRE=Blues
TTITLE0=Big Legged Woman
TTITLE1=Me And My Guitar
TTITLE2=I'd Rather Be Blind
TTITLE3=Something You Got
TTITLE4=Ain't No Big Deal On You
TTITLE5=I Just Want To Make Love To You
TTITLE6=It Hurts Me Too
TTITLE7=Boogie Fuck (Guitar Boogie)
TTITLE8=Woman Across The River
TTITLE9=I'm Your Hoochie Coochie Man
TTITLE10=Danger Zone
TTITLE11=Boogie Man
TTITLE12=Leave My Woman Alone
TTITLE13=Just A Little Bit
TTITLE14=Yonder Wall
TTITLE15=Help Me Through The Day
TTITLE16=I'm Ready
TTITLE17=Trouble In Mind
TTITLE18=You Don't Have to Go
TTITLE19=Goin' Down (live)
EXTD=
EXTT0=
EXTT1=
EXTT2=
EXTT3=
EXTT4=
EXTT5=
EXTT6=
EXTT7=
EXTT8=
EXTT9=
EXTT10=
EXTT11=
EXTT12=
EXTT13=
EXTT14=
EXTT15=
EXTT16=
EXTT17=
EXTT18=
EXTT19=
PLAYORDER=
